<?xml version="1.0" standalone="no"?>
<!DOCTYPE svg PUBLIC "-//W3C//DTD SVG 20010904//EN"
 "http://www.w3.org/TR/2001/REC-SVG-20010904/DTD/svg10.dtd">
<svg version="1.0" xmlns="http://www.w3.org/2000/svg"
 width="123.000000pt" height="123.000000pt" viewBox="0 0 123.000000 123.000000"
 preserveAspectRatio="xMidYMid meet">
<metadata>
Created by potrace 1.11, written by Peter Selinger 2001-2013
</metadata>
<g transform="translate(0.000000,123.000000) scale(0.100000,-0.100000)"
fill="#000000" stroke="none">
<path d="M203 866 c-61 -19 -110 -53 -138 -94 -41 -61 -29 -129 25 -134 22 -3
25 0 22 24 -5 44 16 102 48 133 16 16 33 25 37 21 4 -4 10 -106 12 -227 l3
-220 55 3 56 3 56 154 56 154 6 -119 c4 -65 7 -136 8 -157 l1 -38 53 3 52 3
65 174 c59 158 65 170 71 140 8 -37 32 -59 65 -59 21 0 22 3 14 31 -13 43 3
106 33 137 39 39 46 24 27 -58 -10 -41 -30 -131 -44 -200 -15 -69 -30 -135
-33 -147 -5 -21 -1 -23 31 -23 40 0 34 -15 82 195 l27 120 36 -155 37 -155 51
-3 51 -3 16 73 c24 102 87 400 89 418 1 11 -8 15 -33 15 l-35 0 -35 -168 c-22
-110 -37 -161 -41 -149 -4 11 -22 84 -39 163 -17 78 -33 146 -36 151 -7 11
-82 10 -127 -3 -21 -6 -56 -26 -78 -46 l-39 -35 14 40 c14 39 14 40 -11 45
-17 3 -27 -1 -31 -12 -4 -9 -34 -97 -69 -196 l-62 -180 0 193 c-1 105 -4 192
-8 193 -80 8 -85 6 -101 -30 -8 -20 -38 -106 -67 -191 l-52 -155 -8 193 -8
192 -31 -1 c-17 0 -50 -6 -73 -13z"/>
</g>
</svg>
